<svg xmlns="http://www.w3.org/2000/svg" viewBox="0 0 37.5 37.5" style="enable-background:new 0 0 37.5 37.5" xml:space="preserve"><style>.st7{fill:#696cff}.st14{fill:#566a7f}</style><g id="Objects"><linearGradient id="SVGID_1_" gradientUnits="userSpaceOnUse" x1="16.404" y1="156.855" x2="29.272" y2="162.225" gradientTransform="rotate(-11.536 -709.979 88.51)"><stop offset="0" style="stop-color:#8c15e8"/><stop offset=".959" style="stop-color:#241645"/></linearGradient><path d="M30.8 12.2s-3-1.4-7.1-1.6c0 0-1 .1-1.1 1-.1.9.7 1.4 1.3 1.4.6 0 3.5.3 5.5 1.1.1.1 1.3-1.1 1.4-1.9z" style="fill:url(#SVGID_1_)"/><linearGradient id="SVGID_2_" gradientUnits="userSpaceOnUse" x1="12.577" y1="151.334" x2="33.89" y2="160.862" gradientTransform="rotate(-11.536 -709.979 88.51)"><stop offset=".208" style="stop-color:#1e82ea"/><stop offset=".29" style="stop-color:#1e7de2"/><stop offset=".417" style="stop-color:#1c6ecc"/><stop offset=".574" style="stop-color:#1b57a8"/><stop offset=".754" style="stop-color:#183776"/><stop offset=".953" style="stop-color:#150e36"/><stop offset="1" style="stop-color:#140326"/></linearGradient><path d="M31.3 8.7s-2-1.6-5.3-1.9c0 0-1.9 0-1.9 1.7 0 1.6 1.2 2.3 2 2.4.8.1 2.8.5 4.6 1.3.1 0 1.2-1.5.6-3.5z" style="fill:url(#SVGID_2_)"/><linearGradient id="SVGID_3_" gradientUnits="userSpaceOnUse" x1="7.196" y1="161.664" x2="22.047" y2="155.849" gradientTransform="rotate(-11.536 -709.979 88.51)"><stop offset=".041" style="stop-color:#241645"/><stop offset="1" style="stop-color:#8c15e8"/></linearGradient><path d="M12.8 14.9c-2.3.9-5 2.2-7.2 4.3 0 0-1.5-.7-1.9-1.4 0 0 2.9-3.3 8.6-5.4 0 0 1.2-.4 1.5.7.4 1.3-1 1.8-1 1.8z" style="fill:url(#SVGID_3_)"/><linearGradient id="SVGID_4_" gradientUnits="userSpaceOnUse" x1="-.178" y1="161.193" x2="27.071" y2="150.524" gradientTransform="rotate(-11.536 -709.979 88.51)"><stop offset="0" style="stop-color:#140326"/><stop offset=".265" style="stop-color:#18306c"/><stop offset=".628" style="stop-color:#1c6bc6"/><stop offset=".792" style="stop-color:#1e82ea"/></linearGradient><path d="M3.7 17.8s3.7-3.9 9.5-5.7c0 0 1.9-.7 1.5-2.7-.5-2-2.3-1.5-2.3-1.5S5.3 9.8 1.9 14.7c0 0 0 2.1 1.8 3.1z" style="fill:url(#SVGID_4_)"/><linearGradient id="SVGID_5_" gradientUnits="userSpaceOnUse" x1="2.228" y1="154.914" x2="16.004" y2="154.914" gradientTransform="rotate(-11.536 -709.979 88.51)"><stop offset=".206" style="stop-color:#241645"/><stop offset=".3" style="stop-color:#2a164f"/><stop offset=".461" style="stop-color:#3b1669"/><stop offset=".666" style="stop-color:#571694"/><stop offset=".908" style="stop-color:#7c15cf"/><stop offset="1" style="stop-color:#8c15e8"/></linearGradient><path d="M13.1 7.6c-8.4 2.5-11.2 7.1-11.2 7.1-.6-1.5.8-3.4.8-3.4 2.6-3.6 6.8-5.5 9.7-6.4 0 0 1.3-.4 1.8.9.3 1.3-1.1 1.8-1.1 1.8z" style="fill:url(#SVGID_5_)"/><linearGradient id="SVGID_6_" gradientUnits="userSpaceOnUse" x1="21.884" y1="157.829" x2="35.112" y2="157.829" gradientTransform="rotate(-11.536 -709.979 88.51)"><stop offset="0" style="stop-color:#8c15e8"/><stop offset=".092" style="stop-color:#7c15cf"/><stop offset=".334" style="stop-color:#571694"/><stop offset=".539" style="stop-color:#3b1669"/><stop offset=".7" style="stop-color:#2a164f"/><stop offset=".794" style="stop-color:#241645"/></linearGradient><path d="M21.8 6.4c4.8 0 11.2 1.1 13.4 6.9 0 0-1.2-4.5-6.6-7.9 0 0-2.5-1.6-7-1.9-.4 0-.8.1-1.1.3-.3.2-.5.5-.5 1 0 1.2 1 1.6 1.8 1.6z" style="fill:url(#SVGID_6_)"/><path class="st7" d="M25.4 17.7c-.9-.8-2-1.4-3.3-2-.4-.2-1.6-.6-3.6-1.3-1.7-.6-2.9-1.2-3.6-2-.6-.7-.8-1.4-.8-2.3 0-1.1.3-2 1-2.7.6-.7 1.5-1.1 2.5-1.1 1.1 0 2 .4 2.8 1.1.8.7 1.2 1.6 1.2 2.6 0 1.9 1.5 3.4 3.4 3.4s3.4-1.5 3.4-3.4c0-2.7-1-5.1-3.1-7.1s-4.5-3-7.2-3c-2.9 0-5.3 1-7.3 2.9S7.7 7.1 7.7 9.9c0 .6.1 1.3.2 1.9.1.6.3 1.2.6 1.8.5 1.2 1.2 2.3 2 3.1.8.8 1.8 1.5 2.9 2 .6.3 1.7.7 3.3 1.2 1.3.4 2.2.8 2.9 1.1 1.1.6 1.8 1.2 2.3 1.8.6.8.9 1.8.9 3.1s-.5 2.3-1.4 3.2c-.5.4-.9.7-1.5.9-.5.2-1.1.3-1.7.3-1.4 0-2.5-.4-3.4-1.2-1-.8-1.5-1.9-1.5-3.3 0-1.9-1.5-3.4-3.4-3.4s-3.4 1.5-3.4 3.4c0 3 1.1 5.6 3.4 7.7 2.3 2.1 4.9 3.1 8 3.1 3.2 0 5.8-1.1 8.1-3.2s3.4-4.8 3.4-7.9c-.3-3.1-1.6-5.8-4-7.8z"/><linearGradient id="SVGID_7_" gradientUnits="userSpaceOnUse" x1="29.904" y1="176.12" x2="36.388" y2="174.424" gradientTransform="rotate(-11.536 -709.979 88.51)"><stop offset="0" style="stop-color:#8c15e8"/><stop offset=".959" style="stop-color:#241645"/></linearGradient><path d="M32.5 28s-.7.6-.5 1.4c.2.8.7.8 1.2.4s2.8-2.9 3.4-5.5c0 0 .4-2.2.3-4.1 0 0 .3 4-4.4 7.8z" style="fill:url(#SVGID_7_)"/><linearGradient id="SVGID_8_" gradientUnits="userSpaceOnUse" x1="17.118" y1="168.744" x2="35.52" y2="160.925" gradientTransform="rotate(-11.536 -709.979 88.51)"><stop offset="0" style="stop-color:#19edd0"/><stop offset=".126" style="stop-color:#24d9d2"/><stop offset=".385" style="stop-color:#3fa5d8"/><stop offset=".75" style="stop-color:#6c52e1"/><stop offset="1" style="stop-color:#8c15e8"/></linearGradient><path d="M20.4 19.4s7.3-2 10.1-6.5-1.3-7.1-1.9-7.3c0 0 3.8 1.7 6.3 6.9s-3.7 11.4-12.4 14.1c0 0-4.6 1.7-5.4-2.4-.9-4.2 3.3-4.8 3.3-4.8z" style="fill:url(#SVGID_8_)"/><linearGradient id="SVGID_9_" gradientUnits="userSpaceOnUse" x1="19.991" y1="175.502" x2="38.034" y2="168.438" gradientTransform="rotate(-11.536 -709.979 88.51)"><stop offset=".041" style="stop-color:#1e82ea"/><stop offset=".85" style="stop-color:#8c15e8"/></linearGradient><path d="M25.6 25.3s-3.4 1.3-2.5 4.4c.9 3.1 4.2 1.5 4.2 1.5s9.1-3.9 9.5-10.9c0 0 .1-3.1-1.8-7.5.1 0 2.9 6.9-9.4 12.5z" style="fill:url(#SVGID_9_)"/><linearGradient id="SVGID_10_" gradientUnits="userSpaceOnUse" x1="-1.111" y1="170.75" x2="9.284" y2="170.75" gradientTransform="rotate(-11.536 -709.979 88.51)"><stop offset="0" style="stop-color:#8c15e8"/><stop offset="1" style="stop-color:#1e82ea"/></linearGradient><path d="M.1 19.5s-.5 3.8 1.4 8.5c0 0 1.7 3.6 7.5 5.1.5.1 1 .2 1.4.1.9-.1 2.1-.5 1.9-2-.2-2.2-1.5-3.4-3.3-3.8-1.8-.4-8.5-2-8.9-7.9z" style="fill:url(#SVGID_10_)"/><linearGradient id="SVGID_11_" gradientUnits="userSpaceOnUse" x1=".203" y1="177.859" x2="8.55" y2="176.193" gradientTransform="rotate(-11.536 -709.979 88.51)"><stop offset=".041" style="stop-color:#241645"/><stop offset="1" style="stop-color:#8c15e8"/></linearGradient><path d="M1.5 28s2.5 5.4 12.7 5.9c0 0 1.1 0 1.5 1 .4 1-.5 1.3-1.2 1.3 0 0-6.6 0-11-4.5.1-.1-1.4-2.3-2-3.7z" style="fill:url(#SVGID_11_)"/><linearGradient id="SVGID_12_" gradientUnits="userSpaceOnUse" x1="7.103" y1="164.951" x2="-1.103" y2="160.24" gradientTransform="rotate(-11.536 -709.979 88.51)"><stop offset="0" style="stop-color:#19edd0"/><stop offset="1" style="stop-color:#8c15e8"/></linearGradient><path d="M5.3 18.9s2.2 1.2 1.8 4.2c-.4 3-2.4 2.6-3.2 2.3-.8-.3-3.9-2.6-3.8-6.5 0 0 .2-3.5 2.6-7.6 0 .1-3.1 4.2 2.6 7.6z" style="fill:url(#SVGID_12_)"/></g></svg>